<?xml version="1.0" standalone="no"?>
<!DOCTYPE svg PUBLIC "-//W3C//DTD SVG 20010904//EN"
 "http://www.w3.org/TR/2001/REC-SVG-20010904/DTD/svg10.dtd">
<svg version="1.0" xmlns="http://www.w3.org/2000/svg"
 width="512.000000pt" height="512.000000pt" viewBox="0 0 512.000000 512.000000"
 preserveAspectRatio="xMidYMid meet">

<g transform="translate(0.000000,512.000000) scale(0.100000,-0.100000)"
fill="#000000" stroke="none">
<path d="M601 4471 c-75 -75 -79 -506 -5 -618 14 -22 19 -23 193 -23 159 0
180 -2 194 -18 19 -20 57 -125 57 -154 0 -11 5 -16 10 -13 13 8 11 90 17 -890
3 -584 1 -857 -7 -923 -13 -104 -41 -212 -66 -251 l-17 -26 28 25 c59 54 119
215 160 431 13 68 24 114 24 103 2 -36 -28 -194 -55 -293 -33 -122 -76 -212
-120 -250 l-35 -31 -183 0 -184 0 -25 30 c-22 26 -42 77 -60 155 -13 57 -4
-66 13 -180 45 -292 120 -507 217 -624 l28 -33 98 7 c84 6 103 11 128 33 63
52 128 221 168 439 51 273 57 459 54 1753 -1 507 -12 684 -59 918 -43 210 -91
337 -154 403 l-37 39 -92 0 c-71 0 -91 -3 -85 -12 4 -7 20 -31 34 -53 55 -81
117 -241 156 -400 13 -55 24 -109 23 -120 0 -11 -9 17 -19 62 -38 169 -112
355 -199 498 -17 29 -20 30 -99 33 -70 2 -84 0 -101 -17z m426 -633 c-3 -7 -5
-2 -5 12 0 14 2 19 5 13 2 -7 2 -19 0 -25z m10 -55 c-3 -10 -5 -4 -5 12 0 17
2 24 5 18 2 -7 2 -21 0 -30z m10 -75 c-3 -7 -5 -2 -5 12 0 14 2 19 5 13 2 -7
2 -19 0 -25z m170 -1380 c-2 -13 -4 -3 -4 22 0 25 2 35 4 23 2 -13 2 -33 0
-45z m-12 -118 c-4 -39 -9 -69 -12 -67 -2 3 -1 37 3 76 3 40 9 70 11 67 3 -3
2 -37 -2 -76z"/>
<path d="M512 1780 c0 -14 2 -19 5 -12 2 6 2 18 0 25 -3 6 -5 1 -5 -13z"/>
</g>
</svg>
